<?xml version="1.0" standalone="no"?>
<!DOCTYPE svg PUBLIC "-//W3C//DTD SVG 20010904//EN"
 "http://www.w3.org/TR/2001/REC-SVG-20010904/DTD/svg10.dtd">
<svg version="1.0" xmlns="http://www.w3.org/2000/svg"
 width="524.000000pt" height="468.000000pt" viewBox="0 0 524.000000 468.000000"
 preserveAspectRatio="xMidYMid meet">

<g transform="translate(0.000000,468.000000) scale(0.100000,-0.100000)"
fill="#000000" stroke="none">
<path d="M1147 2974 c-4 -4 -7 -52 -7 -106 l0 -98 55 0 55 0 0 -325 0 -325
-55 0 -56 0 3 -102 3 -103 210 0 210 0 3 103 3 102 -56 0 -55 0 0 43 c0 40 5
47 80 122 44 43 81 77 84 74 18 -19 134 -224 130 -231 -3 -4 -18 -8 -35 -8
l-29 0 0 -105 0 -105 210 0 210 0 0 105 0 105 -48 0 -49 0 -109 182 c-60 100
-112 190 -116 199 -5 13 25 48 122 143 117 115 131 126 164 126 l37 0 -3 103
-3 102 -210 0 -210 0 -3 -102 c-3 -98 -2 -103 18 -103 11 0 20 -4 20 -9 0 -4
-57 -64 -127 -132 l-128 -124 -3 119 c-1 66 0 126 2 133 3 8 23 13 51 13 l46
0 -3 103 -3 102 -201 3 c-110 1 -203 -1 -207 -4z"/>
<path d="M2460 2966 c-94 -21 -169 -79 -218 -171 l-27 -50 -3 -279 c-4 -341 0
-359 92 -452 87 -87 126 -99 331 -99 129 0 170 4 213 18 70 25 152 101 183
169 22 49 24 66 24 218 l0 165 -204 3 c-117 1 -207 -2 -210 -7 -3 -5 -5 -52
-3 -105 l3 -96 105 0 104 0 0 -31 c0 -40 -24 -90 -52 -109 -30 -19 -237 -26
-296 -10 -31 8 -48 20 -62 43 -18 29 -20 52 -20 270 0 265 3 282 64 311 49 23
254 23 303 -1 39 -18 63 -62 63 -113 l0 -30 106 0 107 0 -5 63 c-13 153 -116
268 -267 297 -72 13 -262 11 -331 -4z"/>
<path d="M3157 2973 c-4 -3 -7 -50 -7 -104 l0 -98 53 -3 52 -3 0 -320 0 -320
-52 -3 -53 -3 0 -105 0 -104 210 0 210 0 0 104 0 105 -52 3 -53 3 -3 218 c-2
169 0 218 10 215 6 -2 98 -142 204 -311 105 -168 197 -313 204 -322 10 -12 35
-15 111 -15 l99 0 2 428 3 427 53 3 52 3 0 105 0 104 -210 0 -210 0 0 -104 0
-105 53 -3 52 -3 1 -215 c1 -118 -1 -219 -3 -223 -3 -5 -38 45 -79 110 -40 65
-93 150 -117 188 -25 39 -84 134 -133 213 l-88 142 -151 0 c-83 0 -155 -3
-158 -7z"/>
<path d="M2377 1733 c-4 -3 -7 -44 -7 -90 l0 -83 41 0 c69 0 101 30 77 73 -7
12 -13 38 -13 57 0 27 -5 35 -20 38 -19 4 -19 3 -1 -10 24 -19 13 -58 -17 -59
-21 -1 -21 -1 2 -8 60 -17 51 -74 -13 -79 -35 -3 -36 -2 -36 30 0 19 6 40 13
47 10 11 9 12 -1 6 -11 -6 -13 2 -11 33 3 41 -2 58 -14 45z"/>
<path d="M2574 1732 c-23 -16 -44 -58 -44 -88 0 -73 83 -113 130 -62 45 49 12
158 -48 158 -15 0 -32 -4 -38 -8z m64 -18 c17 -12 22 -25 22 -60 0 -25 -5 -54
-10 -65 -15 -27 -64 -25 -84 3 -23 32 -20 94 4 118 24 24 38 25 68 4z"/>
<path d="M2748 1728 c7 -7 12 -43 12 -90 0 -45 4 -78 10 -78 6 0 10 33 10 78
0 72 2 80 22 89 19 8 16 10 -22 11 -34 2 -41 -1 -32 -10z"/>
<path d="M2898 1733 c7 -3 16 -2 19 1 4 3 -2 6 -13 5 -11 0 -14 -3 -6 -6z"/>
<path d="M2939 1738 c0 -2 -2 -12 -3 -24 -1 -11 -11 -34 -22 -50 -11 -16 -31
-46 -43 -66 l-23 -38 64 2 c56 1 58 2 16 5 -27 2 -48 8 -48 13 0 6 20 39 45
76 42 60 48 84 24 84 -5 0 -9 -1 -10 -2z"/>
<path d="M1475 1650 c-154 -4 -65 -6 299 -8 286 -1 517 0 515 2 -7 8 -578 11
-814 6z"/>
<path d="M3308 1643 c145 -2 379 -2 520 0 141 1 23 2 -263 2 -286 0 -402 -1
-257 -2z"/>
</g>
</svg>
